<svg viewBox="0 0 256 256" version="1.1">
  <path d="M92.9062438,130.532138 C89.0010007,134.437382 82.6693513,134.437382 78.7641081,130.532138 C74.858865,126.626895 74.858865,120.295246 78.7641081,116.390003 L115.887214,79.2668969 L121.190515,73.963596 C125.095758,70.0583529 131.427408,70.0583529 135.332651,73.963596 L140.635951,79.2668969 L177.759058,116.390003 C181.664301,120.295246 181.664301,126.626895 177.759058,130.532138 C173.853814,134.437382 167.522165,134.437382 163.616922,130.532138 L138,104.915217 L138,175 C138,180.522848 133.522848,185 128,185 C122.477152,185 118,180.522848 118,175 L118,105.438382 L92.9062438,130.532138 Z"></path>
</svg>
